<?xml version="1.0" encoding="iso-8859-1"?>
<!-- Generator: Adobe Illustrator 19.0.0, SVG Export Plug-In . SVG Version: 6.00 Build 0)  -->
<svg version="1.1" id="Capa_1" xmlns="http://www.w3.org/2000/svg" xmlns:xlink="http://www.w3.org/1999/xlink" x="0px" y="0px"
	 viewBox="0 0 512 512" style="enable-background:new 0 0 512 512;" xml:space="preserve">
<path style="fill:#3B484A;" d="M284.136,27.464h-56.273c-5.821,0-9.905,5.875-7.727,11.273c7.808,19.356,6.658,48.986,6.658,48.986
	h58.411c0,0-1.15-29.63,6.658-48.986C294.042,33.339,289.957,27.464,284.136,27.464z"/>
<path style="fill:#333E40;" d="M240.74,38.737c-2.178-5.398,1.907-11.273,7.727-11.273h-20.604c-5.821,0-9.905,5.875-7.727,11.273
	c7.808,19.356,6.658,48.986,6.658,48.986h20.604C247.398,87.723,248.548,58.094,240.74,38.737z"/>
<path style="fill:#D7D9CC;" d="M87.328,123.587c0,0,39.2-56.889,168.672-56.889s168.672,56.889,168.672,56.889L256,153.012
	L87.328,123.587z"/>
<path style="fill:#BDBFB4;" d="M138.838,123.587c0,0,33.943-49.227,142.917-56.09c-8.163-0.514-16.732-0.799-25.755-0.799
	c-129.471,0-168.672,56.89-168.672,56.89L256,153.012l25.755-4.493L138.838,123.587z"/>
<path style="fill:#3B484A;" d="M491.914,209.9c11.093,0,20.086,8.992,20.086,20.086v3.965c0,11.093-8.992,20.086-20.086,20.086
	h-60.458V209.9H491.914z"/>
<rect x="431.45" y="209.899" style="fill:#333E40;" width="51.571" height="44.138"/>
<path style="fill:#3B484A;" d="M20.086,209.9C8.992,209.9,0,218.893,0,229.987v3.965c0,11.093,8.992,20.086,20.086,20.086h60.458
	V209.9L20.086,209.9L20.086,209.9z"/>
<rect x="28.969" y="209.899" style="fill:#333E40;" width="51.571" height="44.138"/>
<path style="fill:#D7D9CC;" d="M54.725,153.012v276.577c0,30.347,24.601,54.948,54.948,54.948h292.654
	c30.347,0,54.948-24.601,54.948-54.948V153.012H54.725z"/>
<path style="fill:#BDBFB4;" d="M106.234,429.589V153.012H54.725v276.577c0,30.347,24.601,54.948,54.948,54.948h51.509
	C130.835,484.536,106.234,459.936,106.234,429.589z"/>
<g>
	<path style="fill:#3B484A;" d="M160.163,318.773c-4.267,0-7.726-3.459-7.726-7.726v-17.345c0-4.267,3.459-7.726,7.726-7.726
		s7.726,3.459,7.726,7.726v17.345C167.89,315.314,164.43,318.773,160.163,318.773z"/>
	<path style="fill:#3B484A;" d="M351.837,318.773c-4.267,0-7.726-3.459-7.726-7.726v-17.345c0-4.267,3.459-7.726,7.726-7.726
		s7.726,3.459,7.726,7.726v17.345C359.563,315.314,356.104,318.773,351.837,318.773z"/>
	<path style="fill:#3B484A;" d="M256,328.031c-11.448,0-22.19-4.777-29.471-13.107c-2.808-3.213-2.481-8.094,0.732-10.902
		c3.213-2.808,8.093-2.481,10.902,0.732c4.346,4.973,10.848,7.824,17.837,7.824c6.99,0,13.49-2.852,17.836-7.823
		c2.808-3.213,7.689-3.541,10.902-0.732c3.213,2.808,3.541,7.689,0.732,10.902C278.19,323.254,267.448,328.031,256,328.031z"/>
	<path style="fill:#3B484A;" d="M472.678,164.254L472.678,164.254c-3.912-23.468-24.215-40.667-48.006-40.667H87.328
		c-23.791,0-44.095,17.2-48.006,40.667l0,0c-1.586,9.518,5.754,18.183,15.403,18.183h402.55
		C466.924,182.437,474.264,173.772,472.678,164.254z"/>
</g>
<path style="fill:#333E40;" d="M90.831,164.254L90.831,164.254c3.912-23.468,24.215-40.667,48.006-40.667H87.328
	c-23.791,0-44.095,17.2-48.006,40.667l0,0c-1.586,9.518,5.754,18.183,15.403,18.183h51.509
	C96.585,182.437,89.245,173.772,90.831,164.254z"/>
<g>
</g>
<g>
</g>
<g>
</g>
<g>
</g>
<g>
</g>
<g>
</g>
<g>
</g>
<g>
</g>
<g>
</g>
<g>
</g>
<g>
</g>
<g>
</g>
<g>
</g>
<g>
</g>
<g>
</g>
</svg>
