<?xml version="1.0" encoding="iso-8859-1"?>
<!-- Generator: Adobe Illustrator 19.0.0, SVG Export Plug-In . SVG Version: 6.00 Build 0)  -->
<svg version="1.1" id="Capa_1" xmlns="http://www.w3.org/2000/svg" xmlns:xlink="http://www.w3.org/1999/xlink" x="0px" y="0px"
	 viewBox="0 0 512 512" style="enable-background:new 0 0 512 512;" xml:space="preserve">
<path style="fill:#3B484A;" d="M36.716,459.634v32.073c0,11.207,9.086,20.294,20.294,20.294h41.454
	c11.207,0,20.294-9.086,20.294-20.294v-32.073H36.716z"/>
<path style="fill:#333E40;" d="M67.621,491.706v-32.073H36.716v32.073c0,11.207,9.086,20.294,20.294,20.294h30.905
	C76.707,512,67.621,502.914,67.621,491.706z"/>
<path style="fill:#3B484A;" d="M475.284,459.634v32.073c0,11.207-9.085,20.294-20.294,20.294h-41.454
	c-11.207,0-20.294-9.086-20.294-20.294v-32.073H475.284z"/>
<path style="fill:#333E40;" d="M424.148,491.706v-32.073h-30.905v32.073c0,11.207,9.086,20.294,20.294,20.294h30.905
	C433.233,512,424.148,502.914,424.148,491.706z"/>
<path style="fill:#55C2E3;" d="M432.672,0H79.328C55.794,0,36.716,19.078,36.716,42.611v129.875h438.569V42.611
	C475.284,19.078,456.206,0,432.672,0z"/>
<path style="fill:#45B6D9;" d="M120.535,0H79.328C55.794,0,36.716,19.078,36.716,42.611v129.875h41.207V42.611
	C77.923,19.078,97.001,0,120.535,0z"/>
<path style="fill:#3B484A;" d="M193.399,96.966H87.484c-12.27,0-22.219,9.947-22.219,22.219v33.141h150.352v-33.141
	C215.617,106.913,205.669,96.966,193.399,96.966z"/>
<path style="fill:#333E40;" d="M118.389,96.966H87.484c-12.27,0-22.219,9.947-22.219,22.218v33.14h30.905v-33.14
	C96.171,106.913,106.118,96.966,118.389,96.966z"/>
<path style="fill:#3B484A;" d="M318.601,96.966h105.915c12.271,0,22.219,9.947,22.219,22.219v33.141H296.383v-33.141
	C296.383,106.913,306.331,96.966,318.601,96.966z"/>
<path style="fill:#333E40;" d="M349.506,96.966h-30.905c-12.271,0-22.219,9.947-22.219,22.218v33.14h30.905v-33.14
	C327.289,106.913,337.236,96.966,349.506,96.966z"/>
<path style="fill:#80E2FF;" d="M475.284,129.865H36.716c-16.011,0-28.99,12.979-28.99,28.99v288.699
	c0,16.011,12.979,28.99,28.99,28.99h438.569c16.011,0,28.99-12.979,28.99-28.99V158.855
	C504.275,142.844,491.295,129.865,475.284,129.865z"/>
<path style="fill:#55C2E3;" d="M69.536,447.555v-288.7c0-16.011,12.979-28.99,28.99-28.99H36.716
	c-16.011,0-28.99,12.979-28.99,28.99v288.7c0,16.011,12.979,28.99,28.99,28.99h61.811C82.515,476.545,69.536,463.565,69.536,447.555
	z"/>
<rect x="54.61" y="192.87" style="fill:#3B484A;" width="402.78" height="234.428"/>
<rect x="54.61" y="192.87" style="fill:#333E40;" width="14.926" height="234.428"/>
<g>
	<path style="fill:#F3F5E6;" d="M164.895,322.712c-4.267,0-7.726-3.459-7.726-7.726v-16.488c0-4.267,3.459-7.726,7.726-7.726
		c4.267,0,7.726,3.459,7.726,7.726v16.488C172.621,319.253,169.162,322.712,164.895,322.712z"/>
	<path style="fill:#F3F5E6;" d="M347.105,322.712c-4.267,0-7.726-3.459-7.726-7.726v-16.488c0-4.267,3.459-7.726,7.726-7.726
		s7.726,3.459,7.726,7.726v16.488C354.831,319.253,351.372,322.712,347.105,322.712z"/>
	<path style="fill:#F3F5E6;" d="M256,331.513c-10.993,0-21.31-4.588-28.304-12.59c-2.808-3.213-2.481-8.094,0.732-10.902
		c3.213-2.808,8.093-2.481,10.902,0.732c4.059,4.644,10.135,7.307,16.669,7.307c6.534,0,12.609-2.663,16.669-7.307
		c2.807-3.213,7.689-3.541,10.902-0.732c3.213,2.808,3.541,7.689,0.731,10.902C277.309,326.925,266.993,331.513,256,331.513z"/>
</g>
<g>
	<circle style="fill:#80E2FF;" cx="256" cy="52.213" r="20.779"/>
	<circle style="fill:#80E2FF;" cx="140.445" cy="52.213" r="20.779"/>
	<circle style="fill:#80E2FF;" cx="371.555" cy="52.213" r="20.779"/>
</g>
<path style="fill:#FA7578;" d="M457.39,173.685H54.61c-10.593,0-19.18,8.588-19.18,19.18l0,0c0,10.592,8.588,19.18,19.18,19.18
	h402.78c10.593,0,19.18-8.588,19.18-19.18l0,0C476.57,182.273,467.983,173.685,457.39,173.685z"/>
<path style="fill:#F9545B;" d="M50.171,192.865L50.171,192.865c0-10.593,8.588-19.18,19.18-19.18H54.61
	c-10.593,0-19.18,8.587-19.18,19.18l0,0c0,10.592,8.588,19.18,19.18,19.18h14.741C58.757,212.046,50.171,203.459,50.171,192.865z"/>
<g>
</g>
<g>
</g>
<g>
</g>
<g>
</g>
<g>
</g>
<g>
</g>
<g>
</g>
<g>
</g>
<g>
</g>
<g>
</g>
<g>
</g>
<g>
</g>
<g>
</g>
<g>
</g>
<g>
</g>
</svg>
