<svg height="512pt" viewBox="-18 0 512 512.00103" width="512pt" xmlns="http://www.w3.org/2000/svg"><path d="m458.75 322.875-14.453125-16.828125-30.820313 16.828125v96.292969h45.273438c9.039062 0 16.367188-7.328125 16.367188-16.371094v-63.550781c0-9.042969-7.328126-16.371094-16.367188-16.371094zm0 0" fill="#e5e8ec"/><path d="m458.75 130.292969-14.453125-18.875-30.820313 18.875v96.289062l30.820313 17.285157 14.453125-17.285157c9.039062 0 16.367188-7.328125 16.367188-16.367187v-63.554688c0-9.039062-7.328126-16.367187-16.367188-16.367187zm0 0" fill="#6ee6db"/><path d="m458.75 130.292969-14.453125-18.875-30.820313 18.875v30.902343h45.273438c5.75 0 11.265625-1.035156 16.367188-2.925781v-11.609375c0-9.039062-7.328126-16.367187-16.367188-16.367187zm0 0" fill="#26bed3"/><path d="m458.75 34h-45.273438v96.292969h45.273438c9.039062 0 16.367188-7.332031 16.367188-16.371094v-63.550781c0-9.042969-7.328126-16.371094-16.367188-16.371094zm0 0" fill="#ffe967"/><path d="m458.75 322.875-14.453125-16.828125-30.820313 16.828125v30.90625h45.273438c5.75 0 11.265625-1.035156 16.367188-2.925781v-11.609375c0-9.042969-7.328126-16.371094-16.367188-16.371094zm0 0" fill="#dadadc"/><path d="m458.75 226.582031h-45.273438v96.292969h45.273438c9.039062 0 16.367188-7.328125 16.367188-16.371094v-63.550781c0-9.039063-7.328126-16.371094-16.367188-16.371094zm0 0" fill="#ff8892"/><path d="m458.75 226.582031h-45.273438v27.695313h61.640626v-11.324219c0-9.039063-7.328126-16.371094-16.367188-16.371094zm0 0" fill="#ff5754"/><path d="m397.226562 0h-322.90625c-18.777343 0-34 15.222656-34 34v444.003906c0 18.773438 15.222657 33.996094 34 33.996094h322.90625c18.777344 0 33.996094-15.222656 33.996094-33.996094v-444.003906c0-18.777344-15.21875-34-33.996094-34zm0 0" fill="#7e7ce8"/><path d="m59.746094 50.613281h-19.425782v93.300781h19.425782c25.722656 0 46.648437-20.929687 46.648437-46.652343 0-25.722657-20.929687-46.648438-46.648437-46.648438zm0 0" fill="#7c62e8"/><path d="m59.746094 76.367188h-38.851563c-11.539062 0-20.894531 9.355468-20.894531 20.894531 0 11.539062 9.355469 20.894531 20.894531 20.894531h38.851563c11.539062 0 20.894531-9.355469 20.894531-20.894531 0-11.539063-9.355469-20.894531-20.894531-20.894531zm0 0" fill="#e5e8ec"/><path d="m59.746094 156.4375h-19.425782v93.300781h19.425782c25.722656 0 46.648437-20.929687 46.648437-46.652343 0-25.71875-20.929687-46.648438-46.648437-46.648438zm0 0" fill="#7c62e8"/><path d="m59.746094 182.191406h-38.851563c-11.539062 0-20.894531 9.355469-20.894531 20.894532 0 11.542968 9.355469 20.898437 20.894531 20.898437h38.851563c11.539062 0 20.894531-9.355469 20.894531-20.898437 0-11.539063-9.355469-20.894532-20.894531-20.894532zm0 0" fill="#e5e8ec"/><path d="m59.746094 262.261719h-19.425782v93.300781h19.425782c25.722656 0 46.648437-20.929688 46.648437-46.648438 0-25.722656-20.929687-46.652343-46.648437-46.652343zm0 0" fill="#7c62e8"/><path d="m59.746094 288.015625h-38.851563c-11.539062 0-20.894531 9.355469-20.894531 20.898437 0 11.539063 9.355469 20.894532 20.894531 20.894532h38.851563c11.539062 0 20.894531-9.355469 20.894531-20.894532 0-11.542968-9.355469-20.898437-20.894531-20.898437zm0 0" fill="#e5e8ec"/><path d="m59.746094 368.085938h-19.425782v93.300781h19.425782c25.722656 0 46.648437-20.925781 46.648437-46.648438 0-25.722656-20.929687-46.652343-46.648437-46.652343zm0 0" fill="#7c62e8"/><path d="m59.746094 393.839844h-38.851563c-11.539062 0-20.894531 9.355468-20.894531 20.898437 0 11.539063 9.355469 20.894531 20.894531 20.894531h38.851563c11.539062 0 20.894531-9.355468 20.894531-20.894531 0-11.539062-9.355469-20.898437-20.894531-20.898437zm0 0" fill="#e5e8ec"/><path d="m380.078125 145.015625c0 17.382813-9.78125 32.480469-24.148437 40.085937-3.285157 1.75-5.394532 5.109376-5.394532 8.839844v56.453125l-101.855468 40.226563-101.851563-40.226563v-56.453125c0-3.730468-2.109375-7.089844-5.394531-8.839844-14.367188-7.605468-24.148438-22.703124-24.148438-40.085937 0-24.9375 20.34375-45.316406 45.277344-45.355469 6.507812-.007812 12.691406 1.351563 18.292969 3.8125 4.320312 1.910156 9.347656.074219 11.402343-4.183594 10.125-20.964843 31.582032-35.421874 56.421876-35.421874 24.84375 0 46.300781 14.457031 56.425781 35.421874 2.054687 4.257813 7.082031 6.09375 11.402343 4.183594 5.601563-2.460937 11.785157-3.820312 18.289063-3.8125 24.9375.039063 45.28125 20.417969 45.28125 45.355469zm0 0" fill="#e5e8ec"/><path d="m350.535156 250.394531v60.21875c0 11.183594-9.0625 20.234375-20.234375 20.234375h-163.238281c-11.171875 0-20.234375-9.050781-20.234375-20.234375v-60.21875zm0 0" fill="#dadadc"/><g fill="#2d3c50"><path d="m189.617188 302.09375c-4.265626 0-7.726563-3.460938-7.726563-7.726562v-10.691407c0-4.265625 3.460937-7.726562 7.726563-7.726562 4.265624 0 7.726562 3.460937 7.726562 7.726562v10.691407c0 4.265624-3.460938 7.726562-7.726562 7.726562zm0 0"/><path d="m307.746094 302.09375c-4.269532 0-7.726563-3.460938-7.726563-7.726562v-10.691407c0-4.265625 3.457031-7.726562 7.726563-7.726562 4.265625 0 7.726562 3.460937 7.726562 7.726562v10.691407c0 4.265624-3.460937 7.726562-7.726562 7.726562zm0 0"/><path d="m248.679688 307.796875c-7.910157 0-15.34375-3.3125-20.394532-9.089844-2.808594-3.214843-2.480468-8.09375.734375-10.902343 3.210938-2.808594 8.09375-2.480469 10.902344.734374 2.113281 2.417969 5.308594 3.808594 8.757813 3.808594 3.453124 0 6.648437-1.390625 8.761718-3.808594 2.808594-3.214843 7.691406-3.542968 10.902344-.734374 3.214844 2.808593 3.542969 7.691406.734375 10.902343-5.050781 5.777344-12.484375 9.089844-20.398437 9.089844zm0 0"/></g><path d="m350.535156 383.367188h-203.707031c-4.265625 0-7.726563-3.457032-7.726563-7.726563 0-4.265625 3.460938-7.726563 7.726563-7.726563h203.707031c4.265625 0 7.726563 3.460938 7.726563 7.726563 0 4.269531-3.460938 7.726563-7.726563 7.726563zm0 0" fill="#e5e8ec"/><path d="m350.535156 423.136719h-203.707031c-4.265625 0-7.726563-3.457031-7.726563-7.726563 0-4.265625 3.460938-7.726562 7.726563-7.726562h203.707031c4.265625 0 7.726563 3.460937 7.726563 7.726562 0 4.269532-3.460938 7.726563-7.726563 7.726563zm0 0" fill="#e5e8ec"/></svg>